<?xml version="1.0" encoding="utf-8"?>
<!-- Generator: Adobe Illustrator 24.2.3, SVG Export Plug-In . SVG Version: 6.00 Build 0)  -->
<svg version="1.1" xmlns="http://www.w3.org/2000/svg" xmlns:xlink="http://www.w3.org/1999/xlink" x="0px" y="0px"
	 viewBox="0 0 1920 1080" style="enable-background:new 0 0 1920 1080;" xml:space="preserve">
<style type="text/css">
	@font-face{
    font-family: good-times;
    src: url("/fonts/good-times.ttf") format('truetype');
    font-weight: normal;
    font-style: normal;
	}
	.st0{fill:#FF0000;}
	.st1{fill:#C0201B;}
	.st2{fill:none;}
	.st3{fill:#FFFFFF;}
	.st4{font-family:'good-times';}
	.st5{font-size:96px;}
	.st6{font-size:48px;}
</style>
<g id="Ebene_1">
	<path class="st0" d="M1265.7,530H636.3c-12.3,0-22.3-10-22.3-22.3V379.3c0-12.3,10-22.3,22.3-22.3h629.4c12.3,0,22.3,10,22.3,22.3
		v128.4C1288,520,1278,530,1265.7,530z"/>
	<path class="st1" d="M1137.2,585H764.8c-10.4,0-18.8-8.4-18.8-18.8v-39.4c0-10.4,8.4-18.8,18.8-18.8h372.4
		c10.4,0,18.8,8.4,18.8,18.8v39.4C1156,576.6,1147.6,585,1137.2,585z"/>
</g>
<g id="Ebene_2">
	<rect x="612.7" y="401" class="st2" width="671.3" height="81.2"/>
	<text transform="matrix(1 0 0 1 685.3042 470.791)" class="st3 st4 st5">Marvel</text>
	<rect x="746.6" y="528.1" class="st2" width="408.4" height="36.9"/>
	<text transform="matrix(1 0 0 1 805.1068 562.9927)" class="st3 st4 st6">Fanpage</text>
</g>
</svg>
